<?xml version="1.0" standalone="no"?>
<!DOCTYPE svg PUBLIC "-//W3C//DTD SVG 20010904//EN"
 "http://www.w3.org/TR/2001/REC-SVG-20010904/DTD/svg10.dtd">
<svg version="1.0" xmlns="http://www.w3.org/2000/svg"
 width="3567.000000pt" height="3567.000000pt" viewBox="0 0 3567.000000 3567.000000"
 preserveAspectRatio="xMidYMid meet">
<metadata>
Created by potrace 1.14, written by Peter Selinger 2001-2017
</metadata>
<g transform="translate(0.000000,3567.000000) scale(0.100000,-0.100000)"
fill="#000000" stroke="none">
<path d="M17180 35453 c-957 -30 -1763 -121 -2725 -309 -1798 -352 -3473 -932
-5000 -1731 -1864 -975 -3362 -2132 -4926 -3803 -363 -388 -695 -793 -1105
-1350 -1607 -2183 -2598 -4433 -3128 -7100 -243 -1224 -296 -1837 -296 -3445
0 -1208 22 -1545 161 -2520 344 -2409 1084 -4483 2314 -6480 1188 -1931 2977
-3857 4845 -5217 747 -544 1153 -782 2330 -1371 990 -496 1335 -645 2085 -905
896 -310 2013 -611 2790 -751 1804 -326 4427 -345 6264 -46 1174 192 2676 617
3773 1069 1733 713 3348 1699 4738 2891 355 304 581 515 991 924 486 487 745
769 1135 1237 1213 1457 2163 3027 2814 4654 668 1669 1062 3476 1200 5495 75
1109 42 2214 -100 3315 -346 2678 -1285 5233 -2725 7415 -1519 2301 -3575
4257 -5912 5626 -722 423 -1474 790 -2248 1099 -2248 897 -4434 1319 -6770
1308 -231 -1 -458 -3 -505 -5z m1125 -633 c2297 -80 4457 -586 6565 -1540 261
-118 854 -417 1115 -560 1455 -803 2751 -1775 3900 -2925 2045 -2047 3560
-4599 4323 -7285 281 -989 461 -1849 546 -2620 72 -649 96 -1144 96 -2040 0
-752 -18 -1196 -71 -1790 -295 -3310 -1453 -6155 -3590 -8831 -463 -578 -782
-933 -1320 -1464 -706 -696 -1142 -1075 -1809 -1572 -1346 -1003 -2850 -1812
-4415 -2378 -1437 -519 -2908 -837 -4390 -950 -337 -25 -522 -34 -987 -47
-993 -27 -2068 36 -3033 178 -1428 210 -2785 586 -4165 1154 -2640 1086 -4796
2683 -6673 4942 -897 1081 -1409 1860 -2021 3078 -992 1974 -1494 3749 -1725
6100 -48 481 -68 1305 -52 2083 15 731 32 968 106 1557 398 3135 1606 5998
3552 8420 1015 1264 2222 2394 3613 3385 750 534 1921 1192 2965 1667 867 395
2038 777 3131 1022 1424 320 2934 464 4339 416z"/>
<path d="M16640 34554 c-201 -18 -484 -45 -630 -59 -1949 -190 -3949 -781
-5895 -1740 -1669 -824 -3344 -2043 -4584 -3338 -1736 -1812 -2952 -3748
-3741 -5957 -749 -2094 -1086 -4516 -935 -6715 109 -1590 449 -3320 902 -4590
433 -1213 1018 -2384 1728 -3460 428 -647 980 -1363 1427 -1846 599 -648 1666
-1676 2166 -2086 263 -217 765 -585 1117 -820 2293 -1531 5174 -2557 7870
-2802 642 -59 1053 -76 1845 -76 892 0 1354 25 2010 106 2703 334 5512 1432
7705 3012 1250 901 2475 2062 3420 3242 1200 1498 2070 3052 2663 4755 463
1327 777 2878 887 4370 53 728 58 1565 15 2265 -131 2084 -607 4025 -1422
5794 -145 315 -465 956 -611 1221 -985 1798 -2262 3366 -3808 4676 -387 328
-994 793 -1449 1109 -1973 1371 -4246 2295 -6724 2734 -467 83 -1127 168
-1481 190 -448 29 -1236 51 -1745 50 -329 -1 -401 -5 -730 -35z m1715 -944
c854 -31 1054 -46 1545 -116 2455 -351 4707 -1205 6775 -2569 1554 -1025 3081
-2529 4217 -4150 778 -1112 1371 -2226 1816 -3415 238 -634 366 -1067 536
-1806 220 -952 347 -1744 400 -2494 49 -676 49 -1664 1 -2425 -117 -1844 -525
-3581 -1202 -5113 -918 -2078 -2285 -3955 -3978 -5462 -1544 -1374 -3358
-2441 -5338 -3139 -1321 -466 -2876 -796 -4059 -861 -866 -47 -2196 -27 -2943
46 -330 32 -1009 137 -1480 230 -1487 293 -2764 724 -4170 1408 -945 460
-1579 847 -2380 1450 -1806 1360 -3230 2950 -4337 4841 -1322 2257 -2022 5103
-1974 8030 21 1321 115 2142 377 3315 277 1237 585 2112 1119 3181 1274 2546
2927 4500 5170 6109 646 463 1265 832 2100 1248 1382 690 2409 1051 3865 1357
746 157 1791 311 2360 349 107 7 1292 -3 1580 -14z m-16507 -19713 c2 -18 -3
-29 -18 -37 -38 -20 -53 8 -24 48 20 29 38 24 42 -11z"/>
<path d="M16160 32699 c-58 -16 -143 -32 -190 -36 -129 -10 -134 -18 -165
-293 -29 -253 -168 -903 -336 -1575 -77 -308 -123 -472 -196 -698 -36 -114
-63 -210 -59 -214 3 -4 28 -6 54 -5 72 4 596 73 603 81 4 3 12 58 18 121 13
141 35 230 61 251 39 33 382 79 591 79 98 0 118 -3 131 -17 28 -32 46 -77 67
-166 26 -109 44 -145 77 -153 15 -4 70 -4 123 0 53 4 201 11 330 16 129 5 238
13 244 19 6 6 -24 70 -90 188 -117 207 -219 409 -368 727 -340 728 -666 1493
-681 1597 -3 24 -10 59 -16 77 -9 30 -13 32 -51 31 -23 0 -89 -14 -147 -30z
m74 -1332 c14 -19 46 -77 70 -129 46 -98 122 -305 115 -313 -8 -7 -133 -23
-238 -30 l-104 -7 6 23 c3 13 17 74 31 134 14 61 31 148 37 195 23 170 36 189
83 127z"/>
<path d="M18889 32660 c-226 -22 -471 -113 -630 -235 -83 -65 -236 -218 -288
-289 -131 -178 -225 -479 -238 -757 -20 -459 169 -871 522 -1134 93 -70 162
-107 268 -144 152 -53 274 -74 437 -74 164 -1 196 6 323 65 102 49 107 47 118
-43 9 -76 25 -93 104 -113 58 -15 417 -66 423 -61 2 1 -5 44 -14 95 -15 82
-16 115 -5 318 28 514 76 929 127 1085 15 43 24 80 22 83 -7 6 -986 89 -991
84 -8 -8 -44 -445 -38 -452 3 -3 76 -12 161 -18 85 -7 158 -15 161 -19 6 -5
-48 -411 -55 -419 -12 -12 -254 -32 -315 -27 -359 33 -604 293 -636 675 -20
230 75 474 244 632 140 131 244 170 446 171 207 1 326 -40 491 -170 52 -41 98
-73 100 -70 7 7 137 368 169 470 14 43 25 94 25 113 0 51 -40 87 -126 113
-327 96 -614 139 -805 121z"/>
<path d="M21055 32388 c-3 -13 -32 -156 -65 -318 -135 -657 -291 -1271 -436
-1715 -62 -187 -100 -275 -162 -377 -41 -66 -41 -68 -19 -73 12 -3 121 -27
242 -54 121 -27 261 -62 311 -79 57 -18 97 -26 106 -21 36 20 67 127 163 554
59 264 127 526 152 585 l15 35 24 -47 c57 -112 267 -641 479 -1208 32 -85 63
-160 69 -166 13 -13 347 -133 472 -169 131 -38 166 -33 142 20 -9 21 -9 51 1
138 17 157 99 639 176 1042 193 1005 239 1295 217 1370 -8 29 -13 31 -154 66
-79 20 -205 55 -279 78 -74 23 -141 44 -149 46 -13 4 -15 -12 -16 -98 -1 -56
-9 -154 -18 -217 -53 -359 -150 -879 -176 -945 l-12 -30 -25 49 c-44 85 -131
309 -325 831 -104 281 -193 514 -198 519 -7 7 -514 206 -526 206 -2 0 -6 -10
-9 -22z"/>
<path d="M13890 32330 c-47 -16 -148 -55 -224 -87 l-140 -58 -83 -340 c-152
-625 -257 -1021 -278 -1043 -6 -7 -477 402 -645 560 -91 85 -214 209 -274 276
l-108 121 -107 -39 c-337 -121 -461 -174 -461 -199 0 -5 16 -35 35 -67 66
-110 201 -491 454 -1284 212 -665 301 -998 304 -1132 1 -47 5 -89 9 -93 4 -4
37 3 75 15 96 32 585 228 597 240 6 6 -13 54 -52 132 -110 222 -429 1095 -407
1116 15 16 709 -526 852 -666 30 -29 59 -50 64 -46 20 12 51 100 170 493 140
464 187 609 199 616 19 12 78 -147 169 -451 128 -430 184 -676 175 -760 -4
-34 -3 -54 3 -54 13 0 568 169 666 202 l67 23 -56 89 c-84 133 -178 366 -378
936 -267 759 -446 1345 -446 1457 0 27 -5 54 -12 61 -20 20 -77 13 -168 -18z"/>
<path d="M24097 31417 c-3 -8 -8 -40 -12 -73 -9 -78 -63 -239 -190 -569 -201
-524 -487 -1205 -624 -1490 -59 -122 -92 -177 -138 -230 l-61 -71 345 -173
c190 -94 348 -170 351 -167 3 3 11 50 18 104 20 154 159 553 424 1217 316 789
428 1013 546 1086 19 11 34 26 33 32 -1 11 -664 349 -680 347 -4 0 -9 -6 -12
-13z"/>
<path d="M25670 30529 c0 -126 -152 -399 -675 -1209 -379 -587 -556 -839 -631
-897 -69 -53 -114 -95 -114 -108 0 -17 124 -101 403 -273 136 -85 229 -136
232 -129 2 7 11 47 20 89 20 94 91 242 205 428 132 216 226 340 259 340 17 0
166 -89 455 -273 121 -77 226 -140 234 -141 10 -1 41 56 89 164 41 91 97 213
124 272 40 84 48 111 40 125 -6 13 -46 30 -118 52 -128 39 -238 90 -348 161
-95 62 -155 117 -155 143 0 43 199 364 242 391 13 8 30 4 74 -17 196 -97 735
-459 866 -583 39 -37 62 -52 73 -48 9 4 49 50 89 103 80 104 162 199 238 273
27 26 48 56 48 67 0 23 9 17 -315 222 -278 176 -943 616 -1075 713 -58 42
-133 101 -168 131 -79 70 -92 71 -92 4z"/>
<path d="M8595 29759 c-49 -44 -152 -128 -227 -186 -76 -58 -138 -109 -138
-112 0 -3 29 -25 65 -49 83 -56 320 -278 570 -533 218 -223 301 -316 291 -326
-15 -16 -357 66 -1056 251 l-395 105 -238 -158 -238 -158 243 -259 c461 -491
817 -905 1105 -1284 143 -188 200 -276 247 -383 22 -48 43 -87 47 -87 4 0 72
59 151 132 156 143 231 208 314 269 30 22 54 48 54 57 0 42 -75 137 -335 422
-250 275 -425 485 -425 512 0 21 212 -26 920 -204 l565 -141 140 98 c241 169
365 271 365 302 0 7 -17 17 -38 22 -52 14 -332 280 -736 697 -470 484 -1015
1027 -1068 1062 -26 18 -57 32 -70 31 -14 0 -58 -31 -113 -80z"/>
<path d="M17170 29239 c-1080 -77 -1967 -254 -3000 -598 -1049 -350 -2023
-815 -2942 -1405 -987 -633 -1933 -1470 -2703 -2392 -861 -1033 -1487 -2137
-1984 -3504 -520 -1429 -735 -2795 -682 -4350 33 -967 122 -1671 312 -2449
283 -1164 692 -2113 1352 -3141 634 -988 1514 -1988 2393 -2721 1702 -1419
3754 -2310 6074 -2638 628 -89 1197 -118 2140 -108 572 6 707 13 1015 48 703
80 1425 221 2070 404 833 237 1830 638 2465 993 1127 629 2400 1672 3254 2662
465 541 913 1174 1257 1777 562 987 947 2044 1194 3278 189 945 235 1420 235
2455 0 1107 -72 1756 -290 2615 -606 2390 -1833 4399 -3665 6002 -849 742
-1852 1415 -2780 1864 -997 481 -2080 847 -3067 1033 -338 64 -581 93 -1178
140 -771 61 -1021 67 -1470 35z m1310 -763 c744 -70 1232 -148 1775 -286 492
-125 1096 -325 1565 -519 1843 -764 3635 -2128 4862 -3701 372 -477 711 -1012
1107 -1745 137 -253 195 -376 181 -385 -25 -15 -369 -32 -901 -45 l-247 -5 -3
294 c-2 162 -7 298 -11 302 -9 8 -83 -13 -919 -262 -13 -4 -18 -26 -23 -112
-4 -59 -9 -128 -13 -154 l-6 -48 -811 0 c-446 -1 -857 -5 -914 -10 -134 -12
-163 -26 -196 -96 -35 -74 -34 -81 17 -88 23 -4 473 -9 1001 -12 l959 -6 -5
-159 c-6 -190 -11 -201 -96 -224 -183 -50 -312 -175 -312 -303 0 -82 35 -120
122 -136 127 -23 369 94 398 192 7 21 14 163 17 335 l6 297 330 0 329 0 -4
-121 c-4 -121 -4 -122 -35 -149 -18 -16 -52 -32 -82 -39 -163 -35 -260 -150
-249 -296 7 -86 25 -112 82 -120 88 -14 246 28 326 86 77 56 83 83 88 393 l4
269 452 -6 c417 -6 690 -18 760 -33 24 -5 34 -19 66 -88 79 -171 290 -748 290
-792 0 -17 -8 -23 -32 -28 -94 -17 -887 -27 -2875 -36 l-2202 -9 -53 -27 c-29
-15 -123 -72 -208 -128 l-154 -101 2815 -3 2816 -2 58 -208 c63 -223 78 -312
53 -312 -8 0 -71 -4 -139 -10 -68 -5 -272 -14 -454 -20 -324 -10 -605 -26
-613 -35 -3 -2 1 -17 7 -33 17 -40 88 -108 134 -127 59 -24 216 -28 706 -16
250 6 456 10 457 8 14 -14 109 -655 120 -808 l7 -97 -94 -6 c-52 -3 -215 -8
-364 -11 -445 -10 -582 -27 -624 -81 -32 -41 -28 -70 12 -78 49 -11 501 -25
804 -26 250 0 272 -1 277 -17 23 -81 56 -545 56 -798 l0 -123 -232 -6 c-128
-3 -429 -11 -668 -16 -414 -10 -697 -23 -767 -36 -27 -5 -33 -11 -33 -31 0
-55 28 -73 140 -89 30 -4 359 -8 730 -9 663 -2 776 -7 804 -35 17 -17 13 -328
-8 -635 -10 -148 -19 -271 -20 -272 -1 -1 -215 -6 -476 -12 -660 -16 -741 -25
-756 -87 -8 -33 11 -52 62 -65 21 -5 288 -12 592 -16 l553 -6 -5 -46 c-3 -25
-13 -116 -21 -201 -21 -209 -48 -382 -91 -585 -20 -93 -37 -171 -39 -173 -1
-2 -216 -9 -476 -17 -656 -20 -995 -42 -1041 -66 -10 -5 -22 -18 -28 -29 -14
-26 19 -47 91 -61 30 -5 311 -14 624 -19 581 -9 674 -13 734 -32 l34 -10 -6
-63 c-7 -77 -92 -439 -162 -690 -89 -317 -295 -874 -493 -1330 -38 -88 -130
-274 -205 -413 -76 -139 -137 -255 -137 -257 0 -2 -35 -66 -79 -142 -246 -430
-503 -806 -920 -1343 -411 -529 -439 -563 -645 -760 -763 -734 -785 -752
-1381 -1167 -467 -324 -840 -571 -1070 -710 -535 -322 -1388 -685 -2195 -934
-1177 -364 -2246 -519 -3585 -519 -881 0 -1525 61 -2316 220 -1303 262 -2418
665 -3403 1230 -351 201 -817 490 -1294 804 -244 159 -421 315 -906 795 -368
365 -538 547 -726 776 -63 76 -156 187 -205 245 -50 58 -116 139 -146 180 -31
41 -191 257 -356 480 -322 433 -332 451 -488 801 -23 53 -76 145 -117 205 -53
78 -92 152 -137 259 -35 83 -105 238 -156 345 -182 381 -448 1174 -610 1813
-26 103 -45 190 -42 193 7 8 418 12 2432 29 3246 28 5465 52 5473 60 3 2 2 15
-2 28 l-6 25 -322 6 c-464 9 -3500 36 -5818 51 -454 3 -1042 8 -1307 11 l-481
6 -36 187 c-48 248 -116 715 -116 802 0 14 44 17 412 22 497 8 598 19 653 75
14 14 25 35 25 47 0 18 -7 24 -36 29 -63 12 -461 25 -775 26 l-305 0 -13 198
c-25 400 -32 559 -25 630 6 63 9 73 28 77 56 13 453 26 1061 35 935 14 1086
25 1103 77 7 24 -36 51 -101 62 -99 17 -540 29 -1365 37 l-742 7 0 26 c0 60
31 496 45 636 23 226 26 238 62 254 51 23 251 30 1123 35 1112 8 1455 21 1720
65 114 20 210 55 194 71 -20 20 -511 31 -1762 39 -705 4 -1285 11 -1288 14 -7
7 25 235 88 624 32 201 44 254 57 257 66 21 2104 45 4756 56 2000 9 2333 14
2399 39 35 14 34 51 -2 92 l-27 30 -605 9 c-333 5 -1746 10 -3140 11 -1394 0
-2695 4 -2890 8 -424 7 -415 5 -408 99 2 32 26 151 54 266 l49 209 725 -6
c1626 -14 4841 -30 4847 -23 8 8 0 15 -187 140 l-155 105 -1615 11 c-1972 13
-3511 28 -3518 35 -6 6 72 226 224 630 l112 300 802 3 802 2 -4 -163 c-2 -137
-6 -167 -21 -191 -13 -19 -55 -44 -133 -81 -177 -84 -266 -182 -266 -296 0
-59 24 -101 75 -129 34 -20 50 -22 125 -18 108 5 193 40 251 103 67 72 73 109
80 440 3 160 9 295 13 301 4 6 24 14 45 18 59 10 1006 27 1015 18 5 -5 11 -91
14 -193 8 -217 13 -206 -113 -238 -180 -44 -299 -144 -319 -267 -11 -73 31
-155 97 -189 61 -32 175 -13 301 50 92 46 136 101 159 202 6 26 14 175 18 330
6 265 8 284 27 303 19 19 39 21 454 30 530 12 570 18 570 84 0 47 -34 74 -106
86 -32 6 -258 10 -500 10 l-442 0 -4 178 c-5 190 -14 228 -55 238 -57 15 -73
-40 -73 -255 l0 -164 -472 7 c-260 4 -507 10 -548 14 l-75 7 -6 165 c-6 171
-15 214 -50 223 -52 14 -78 -79 -79 -289 l0 -101 -347 -6 c-441 -9 -914 -9
-1031 -1 -68 5 -92 11 -92 21 0 42 403 795 633 1183 690 1163 2047 2595 3222
3401 413 284 1125 683 1745 979 494 236 830 376 1215 507 941 318 1907 510
2895 573 215 13 1047 4 1240 -14z m8156 -6423 c9 -20 18 -78 21 -129 l6 -93
-39 -8 c-71 -14 -494 -8 -544 8 -82 27 -60 65 70 118 67 28 428 139 453 140
12 1 23 -12 33 -36z"/>
<path d="M17370 26834 c-272 -23 -424 -52 -675 -129 -543 -165 -936 -390
-1369 -783 -166 -150 -229 -199 -275 -212 -28 -7 -58 -4 -141 15 -231 55 -673
56 -979 4 -522 -88 -1109 -440 -1514 -907 -474 -547 -696 -1171 -674 -1902 12
-416 98 -765 277 -1128 122 -247 249 -429 435 -621 266 -275 589 -492 948
-635 277 -112 480 -157 839 -187 l147 -12 5 -36 c3 -20 11 -1089 17 -2376 6
-1287 14 -2343 18 -2348 17 -18 421 -148 561 -181 1069 -247 3289 -310 4755
-135 332 39 511 72 760 136 132 34 402 121 489 158 l39 16 -8 2378 -7 2378
108 12 c353 41 475 62 666 117 245 70 509 191 723 332 157 103 255 182 394
316 276 269 471 561 620 929 132 325 174 575 174 1027 -1 352 -21 509 -95 740
-97 299 -290 673 -478 925 -348 467 -903 835 -1492 990 -247 64 -364 79 -628
79 -224 -1 -245 -2 -444 -37 l-209 -36 -176 161 c-203 186 -332 291 -475 387
-279 187 -569 325 -916 435 -219 69 -304 86 -560 112 -136 14 -756 27 -860 18z
m690 -679 c309 -41 571 -111 852 -226 347 -143 582 -303 878 -599 277 -277
423 -473 583 -785 l108 -210 -6 280 c-3 154 -8 301 -11 326 l-6 46 103 37
c156 56 262 69 529 63 309 -6 457 -35 682 -131 239 -102 447 -245 648 -446
244 -243 417 -510 535 -825 81 -218 108 -381 108 -665 0 -290 -29 -478 -115
-735 -57 -174 -129 -332 -135 -299 -2 12 9 80 26 150 47 204 56 287 55 539 -2
497 -101 926 -286 1232 -127 212 -431 591 -445 555 -6 -16 38 -94 155 -272
285 -434 352 -693 339 -1300 -7 -330 -37 -547 -109 -800 -58 -203 -129 -360
-228 -509 -58 -86 -190 -231 -211 -231 -5 0 9 23 31 51 112 142 204 430 242
754 18 160 15 550 -6 705 -23 169 -51 304 -87 419 -33 103 -129 334 -137 327
-2 -3 5 -60 17 -128 28 -171 40 -316 47 -583 8 -288 -5 -473 -46 -627 -68
-262 -215 -565 -386 -796 -108 -144 -349 -369 -389 -360 -17 3 -4 24 118 184
82 108 194 327 241 474 38 118 69 259 88 400 15 120 15 465 0 590 -13 102 -84
482 -89 476 -2 -1 -10 -122 -18 -267 -18 -317 -36 -489 -70 -654 -79 -391
-243 -680 -513 -906 -164 -137 -387 -277 -408 -256 -9 9 16 47 80 121 98 112
150 187 209 303 95 186 155 398 176 623 11 117 23 461 16 445 -3 -5 -27 -84
-54 -175 -86 -287 -181 -484 -327 -680 -165 -223 -387 -399 -639 -507 -131
-57 -159 -52 -78 14 100 81 157 141 209 219 115 172 228 459 279 705 29 139
45 362 27 373 -16 10 -34 -23 -97 -179 -85 -212 -174 -366 -302 -525 -76 -94
-238 -252 -323 -314 -81 -60 -200 -130 -207 -122 -3 3 14 36 39 73 155 232
239 547 268 1013 6 96 9 234 5 305 -7 155 -43 510 -55 545 l-8 25 -1 -25 c-3
-65 -74 -488 -107 -628 -62 -270 -140 -502 -162 -488 -13 8 -20 87 -32 341
-13 276 -39 445 -69 445 -13 0 -20 -36 -42 -219 -35 -298 -82 -537 -145 -733
-72 -225 -232 -603 -264 -623 -15 -9 -13 34 12 206 48 332 20 1056 -47 1217
-23 54 -34 31 -51 -109 -66 -548 -128 -821 -239 -1048 -79 -163 -184 -296
-205 -261 -11 18 -19 183 -26 515 -8 449 -23 593 -64 615 -29 16 -36 -11 -43
-165 -3 -71 -13 -170 -22 -219 -36 -199 -114 -453 -182 -593 -34 -69 -96 -153
-113 -153 -25 0 -66 169 -121 495 -31 187 -80 409 -93 423 -20 19 -42 -59 -61
-218 -50 -408 -146 -719 -218 -708 -49 7 -130 184 -191 418 -49 190 -66 295
-72 450 -6 155 -11 200 -24 200 -21 0 -48 -156 -95 -546 -43 -366 -64 -499
-80 -521 -13 -17 -15 -17 -42 3 -123 91 -279 550 -388 1147 -15 81 -29 146
-32 143 -2 -2 -14 -77 -25 -167 -19 -146 -22 -216 -22 -641 -1 -262 -4 -480
-8 -484 -14 -13 -48 40 -122 191 -224 455 -285 700 -341 1370 -9 104 -17 191
-19 193 -9 9 -74 -465 -87 -636 -16 -226 -7 -614 20 -797 11 -77 21 -153 21
-170 0 -28 -3 -25 -36 30 -73 119 -164 321 -213 469 -100 307 -157 607 -215
1145 -8 74 -19 138 -24 143 -23 23 -47 -162 -62 -457 -17 -341 -22 -377 -47
-362 -16 10 -41 112 -63 261 -32 208 -57 263 -80 175 -32 -119 -29 -725 5
-954 36 -244 86 -381 201 -550 69 -104 85 -135 67 -135 -16 0 -166 120 -288
230 -286 257 -433 466 -580 822 -27 65 -51 116 -53 113 -7 -7 17 -258 35 -365
51 -312 213 -650 414 -868 44 -46 79 -88 79 -92 0 -16 -117 23 -198 65 -223
118 -446 317 -570 508 -138 213 -279 569 -297 749 -11 104 -37 147 -67 111
-29 -36 -3 -359 53 -638 70 -352 171 -556 397 -805 50 -56 92 -107 92 -112 0
-29 -167 39 -273 111 -295 199 -560 620 -676 1074 -53 205 -67 330 -81 710 0
4 -4 7 -8 7 -15 0 -44 -112 -54 -213 -14 -141 -4 -660 17 -807 32 -230 87
-410 172 -556 40 -67 65 -101 201 -268 100 -124 80 -141 -50 -44 -284 214
-491 528 -626 950 -92 288 -126 507 -126 818 0 194 4 249 27 401 30 196 34
253 15 247 -28 -9 -93 -219 -137 -445 -97 -491 -99 -913 -5 -1243 37 -127 69
-209 150 -380 l74 -155 -61 65 c-227 245 -413 681 -465 1090 -35 276 -29 781
12 974 59 282 254 662 483 942 64 79 100 139 88 150 -19 20 -202 -154 -352
-336 -260 -315 -409 -675 -488 -1180 -29 -186 -31 -602 -3 -760 26 -150 32
-225 16 -215 -32 20 -114 269 -140 429 -32 193 -46 509 -32 722 13 204 32 294
96 458 222 567 609 991 1141 1251 164 81 294 128 395 144 99 16 441 14 570 -4
232 -33 410 -106 410 -169 0 -12 -11 -55 -24 -96 -33 -102 -76 -311 -76 -363
l1 -42 57 61 c32 34 94 114 140 178 45 64 119 168 164 231 248 350 511 616
808 817 397 268 907 451 1387 498 124 12 466 4 603 -15z m-315 -5189 c27 -41
45 -160 55 -373 5 -118 10 -1022 10 -2081 l0 -1873 -142 3 -143 3 -3 2162 -2
2161 62 10 c113 17 146 15 163 -12z m1419 -17 c7 -7 24 -4334 16 -4342 -4 -4
-49 -6 -101 -5 l-94 3 -3 2175 c-1 1196 0 2180 2 2186 3 8 28 8 90 -1 47 -6
87 -13 90 -16z m-2354 -2138 l0 -2159 -69 -16 c-39 -9 -86 -16 -105 -16 -32 0
-35 3 -40 38 -16 97 -26 1068 -26 2615 l0 1697 120 0 120 0 0 -2159z m500 -6
l0 -2166 -142 3 -143 3 -3 2163 -2 2162 145 0 145 0 0 -2165z m1000 0 l0
-2165 -134 0 -134 0 -6 103 c-3 56 -14 428 -23 827 -19 773 -26 3210 -10 3322
10 72 20 76 185 77 l122 1 0 -2165z m460 0 l0 -2165 -120 0 -120 0 0 2165 0
2165 120 0 120 0 0 -2165z m-2420 -40 l0 -2165 -100 0 -100 0 0 2165 0 2165
100 0 100 0 0 -2165z m3210 2145 c32 -61 35 -221 35 -2165 0 -1944 -3 -2104
-35 -2165 -31 -58 -47 5 -62 245 -16 267 -17 3573 0 3840 15 240 31 303 62
245z m-3750 -40 c32 -60 35 -222 35 -2140 0 -1915 -3 -2090 -35 -2150 -31 -57
-47 5 -62 235 -16 252 -16 3567 0 3820 15 230 31 292 62 235z m4199 -300 c12
-299 36 -2541 36 -3400 0 -558 -1 -598 -18 -624 -15 -22 -25 -27 -50 -24 -27
3 -34 9 -45 43 -24 74 -31 444 -32 1590 0 1792 21 2589 72 2713 l11 27 8 -35
c4 -19 12 -150 18 -290z m-4609 199 c19 -146 32 -1500 27 -2759 -5 -1203 -11
-1446 -36 -1512 -9 -22 -10 -21 -25 14 -35 82 -38 181 -43 1723 -5 1607 4
2372 32 2535 8 47 15 87 15 90 0 2 5 -1 10 -6 6 -6 14 -44 20 -85z m5010 -354
c17 -341 25 -3042 10 -3495 -16 -523 -28 -593 -49 -310 -34 433 -51 1208 -51
2315 0 918 11 1422 35 1674 8 86 15 165 16 176 4 64 31 -182 39 -360z m-5411
27 c33 -701 50 -3427 23 -3772 -12 -167 -20 -220 -32 -220 -30 0 -40 295 -46
1475 -6 1011 6 2451 23 2700 9 145 20 87 32 -183z m3181 -4282 c442 -23 1033
-77 1260 -116 293 -50 808 -177 900 -222 78 -38 24 -83 -156 -127 -213 -53
-715 -133 -1004 -160 -274 -26 -962 -38 -1825 -32 -794 6 -1006 13 -1264 42
-470 54 -1121 201 -1121 254 0 30 509 141 1081 235 356 59 736 101 1129 125
197 12 774 12 1000 1z"/>
<path d="M16555 25741 c-133 -66 -273 -144 -355 -199 -451 -300 -801 -742
-907 -1145 -34 -129 0 -100 167 139 211 303 367 491 577 695 153 149 275 245
504 400 100 68 206 145 233 171 47 44 49 47 26 47 -14 0 -124 -48 -245 -108z"/>
<path d="M21855 19800 c-282 -11 -327 -20 -345 -75 -13 -40 0 -78 32 -97 19
-11 466 -13 2448 -13 2789 0 2650 -4 2733 81 37 39 54 70 43 82 -4 3 -102 9
-219 14 -276 11 -4444 18 -4692 8z"/>
<path d="M26920 19369 c-86 -22 -151 -59 -243 -138 -184 -157 -350 -408 -432
-655 -43 -127 -55 -203 -55 -338 l0 -108 -35 -39 c-19 -21 -97 -80 -172 -131
-186 -126 -292 -211 -393 -316 -191 -199 -272 -376 -273 -604 -1 -131 12 -192
72 -331 114 -264 278 -427 583 -580 205 -103 373 -159 476 -159 68 0 106 -21
128 -71 16 -38 19 -77 22 -269 5 -261 -2 -307 -56 -378 -53 -70 -146 -148
-221 -185 -63 -31 -70 -32 -181 -31 -70 0 -132 6 -159 15 l-44 14 86 53 c172
105 242 192 242 297 0 87 -39 160 -139 262 -71 71 -88 84 -140 98 -73 21 -231
17 -289 -8 -48 -21 -137 -105 -183 -173 -58 -88 -76 -154 -72 -259 3 -79 8
-99 40 -165 109 -224 365 -373 643 -372 161 1 285 41 421 138 223 158 293 379
277 874 l-6 196 94 16 c206 37 384 176 473 370 19 40 39 97 45 126 28 132 3
293 -66 425 -44 87 -196 243 -286 296 -101 59 -227 101 -335 111 -53 4 -105
11 -115 15 -24 10 -42 48 -56 115 -18 92 -52 372 -47 385 2 7 91 72 198 145
228 157 314 225 428 340 192 193 297 384 315 576 9 88 -12 191 -59 287 -44 92
-94 143 -160 162 -72 22 -233 19 -326 -6z m235 -322 c42 -32 -9 -173 -114
-314 -112 -150 -274 -292 -491 -427 -109 -68 -127 -75 -136 -52 -14 37 63 241
144 380 61 105 237 284 336 341 131 76 221 101 261 72z m-857 -1379 c25 -49
51 -175 52 -243 0 -57 -38 -129 -110 -210 -136 -152 -186 -252 -175 -347 14
-132 85 -278 174 -361 56 -52 131 -90 170 -85 45 5 33 59 -53 236 -42 86 -76
168 -76 182 0 14 7 36 16 48 19 28 92 82 110 82 7 0 19 -29 29 -72 34 -151 87
-496 89 -581 1 -83 -1 -90 -24 -109 -32 -26 -81 -20 -216 26 -273 92 -493 256
-609 454 -138 235 -124 488 39 693 73 92 290 244 445 311 90 38 110 35 139
-24z m539 -697 c156 -61 254 -156 294 -284 41 -133 10 -265 -87 -361 -49 -49
-196 -129 -220 -119 -38 14 -68 135 -109 446 -14 106 -32 220 -40 255 -24 103
-23 105 33 100 26 -3 84 -20 129 -37z"/>
<path d="M26018 17481 c-93 -47 -120 -69 -116 -100 7 -60 114 -28 191 58 21
23 37 48 37 56 0 23 -48 17 -112 -14z"/>
<path d="M22400 19157 c0 -26 22 -104 56 -202 31 -88 76 -216 100 -285 63
-181 74 -261 74 -529 0 -213 -34 -1008 -43 -1017 -2 -3 -78 1 -168 7 -295 21
-454 -1 -624 -86 -97 -48 -185 -118 -259 -205 -101 -119 -140 -221 -134 -350
5 -103 33 -164 103 -229 99 -91 228 -126 434 -118 283 11 447 74 629 243 139
128 217 259 254 425 19 87 21 136 27 619 5 481 8 528 24 553 26 40 67 36 160
-17 155 -88 228 -164 278 -287 29 -71 36 -241 16 -394 -8 -60 -12 -112 -10
-115 3 -3 49 40 102 96 81 83 105 117 144 195 140 283 123 540 -51 769 -69 90
-261 274 -427 410 -189 153 -386 323 -502 432 -95 89 -146 128 -170 128 -9 0
-13 -15 -13 -43z"/>
<path d="M10800 18774 c-287 -88 -1794 -564 -1798 -569 -4 -4 -21 -1160 -22
-1478 l0 -289 -37 6 c-279 42 -439 28 -620 -54 -358 -162 -514 -553 -310 -776
88 -96 195 -135 372 -135 136 0 264 30 386 91 109 54 162 94 251 189 129 138
174 235 203 447 9 65 17 119 18 120 1 0 77 -4 168 -9 91 -6 178 -7 193 -3 34
8 35 45 2 83 l-25 28 -176 -2 -177 -3 5 608 c6 606 11 698 42 732 9 10 67 32
128 49 62 16 229 62 372 101 143 39 431 122 641 185 209 63 383 115 387 115 4
0 7 -223 7 -495 0 -272 -2 -495 -4 -495 -3 0 -38 7 -78 16 -102 23 -244 21
-341 -5 -326 -86 -596 -393 -574 -653 7 -87 34 -145 97 -212 168 -178 523
-161 840 42 127 81 269 248 304 357 40 129 61 631 53 1315 -7 569 -21 771 -54
770 -5 -1 -118 -35 -253 -76z"/>
<path d="M11690 18680 c-307 -8 -362 -16 -368 -56 -4 -31 20 -51 80 -63 95
-21 483 -31 1443 -37 939 -6 1143 -2 1195 26 25 13 35 52 21 79 -19 34 -76 42
-381 51 -341 10 -1571 10 -1990 0z"/>
<path d="M21515 18680 c-124 -8 -155 -19 -155 -55 0 -33 30 -61 77 -74 60 -17
446 -34 672 -29 170 3 212 7 239 21 52 28 41 95 -20 117 -70 25 -545 37 -813
20z"/>
<path d="M23430 18681 c1 -16 106 -114 136 -127 19 -8 78 -19 132 -24 209 -20
1990 -4 2232 21 111 11 155 25 155 49 0 24 -48 40 -152 50 -184 18 -2503 46
-2503 31z"/>
<path d="M12988 17783 c-12 -56 48 -197 167 -397 110 -184 114 -214 115 -818
l0 -428 -163 0 c-116 0 -178 -4 -213 -15 -98 -29 -223 -157 -287 -295 -81
-170 -7 -345 170 -400 177 -55 382 4 540 154 103 97 130 155 142 306 6 63 13
214 16 335 8 273 21 428 41 466 13 25 20 29 57 29 90 0 218 -93 266 -193 34
-71 38 -124 12 -182 -25 -58 -26 -75 -4 -75 27 0 86 46 126 99 108 141 122
423 31 604 -37 73 -168 197 -387 367 -109 84 -258 205 -330 267 -204 176 -289
225 -299 176z"/>
<path d="M23985 17550 c-110 -9 -139 -20 -165 -62 -26 -43 -25 -64 3 -80 43
-25 1082 -6 1201 21 80 19 86 64 12 89 -75 25 -852 49 -1051 32z"/>
<path d="M9422 17531 c-7 -4 -18 -26 -23 -47 -7 -33 -6 -41 11 -56 35 -28 119
-33 615 -33 495 0 545 4 576 41 9 11 10 20 2 32 -23 38 -75 43 -578 58 -586
16 -586 16 -603 5z"/>
<path d="M13790 17513 c-66 -12 -67 -53 -2 -84 37 -19 68 -24 149 -27 100 -4
101 -4 119 22 16 26 16 28 -3 54 -11 15 -33 30 -49 33 -33 8 -177 8 -214 2z"/>
<path d="M21478 17510 c-127 -13 -163 -55 -83 -95 38 -19 60 -20 500 -20 518
0 540 3 540 60 0 54 -29 58 -480 61 -220 1 -435 -1 -477 -6z"/>
<path d="M11381 17500 c-91 -19 -93 -64 -5 -89 65 -18 1121 -28 1370 -12 177
11 224 20 224 45 0 20 -52 33 -185 46 -141 14 -1345 22 -1404 10z"/>
<path d="M11635 16430 c-126 -4 -252 -13 -280 -19 -59 -14 -95 -36 -95 -56 0
-38 35 -40 680 -38 797 2 1117 18 1151 59 7 8 9 17 6 20 -35 36 -814 53 -1462
34z"/>
<path d="M23715 16430 c-466 -10 -558 -22 -608 -78 -18 -20 -18 -21 0 -30 10
-5 185 -12 388 -16 359 -7 502 -10 1485 -41 255 -7 466 -12 468 -11 7 7 -66
121 -88 138 -15 10 -56 22 -100 28 -103 13 -1082 20 -1545 10z"/>
<path d="M21555 15220 c-350 -10 -663 -27 -755 -41 -61 -9 -110 -32 -114 -54
0 -5 15 -13 34 -17 87 -19 3782 -49 4173 -33 185 7 187 7 193 30 7 30 -3 62
-22 69 -25 10 -221 26 -449 37 -272 13 -2646 20 -3060 9z"/>
<path d="M17075 14794 c-455 -15 -715 -36 -1059 -85 -910 -130 -1975 -399
-2630 -664 -1535 -620 -2471 -1569 -2632 -2670 -21 -145 -25 -467 -6 -600 87
-626 371 -1173 862 -1665 784 -785 2067 -1373 3730 -1709 886 -179 1588 -251
2445 -251 1024 0 1756 95 2869 372 552 137 925 251 1242 379 808 326 1284 617
1815 1112 883 822 1203 1816 890 2767 -146 440 -431 868 -794 1191 -270 240
-775 597 -1132 800 -459 262 -1380 572 -2310 778 -654 145 -1050 195 -1835
231 -222 11 -1261 20 -1455 14z m1245 -494 c1864 -172 2629 -334 3655 -772
716 -306 943 -477 1340 -1008 261 -350 383 -562 451 -785 26 -84 28 -101 28
-275 0 -178 -1 -191 -37 -349 -21 -91 -39 -166 -41 -168 -1 -2 -8 75 -15 170
-30 414 -66 574 -179 792 -90 173 -248 352 -452 510 -202 156 -255 216 -350
396 -71 134 -124 204 -207 275 -156 132 -304 192 -619 252 -136 26 -275 84
-475 198 -324 183 -488 243 -989 358 -496 114 -598 125 -1195 136 -515 9 -562
13 -803 69 -293 69 -462 86 -805 78 -249 -5 -348 -15 -562 -56 -162 -32 -358
-51 -617 -61 -254 -10 -413 -24 -713 -66 -522 -72 -929 -157 -1113 -231 -86
-35 -339 -158 -397 -193 -91 -55 -368 -163 -577 -224 -257 -76 -503 -177 -700
-288 -158 -90 -201 -137 -328 -368 -94 -171 -168 -257 -340 -395 -185 -149
-278 -257 -362 -422 -84 -162 -120 -284 -178 -603 -20 -113 -39 -196 -43 -185
-24 85 -42 245 -41 385 1 134 4 168 27 253 54 203 172 403 412 702 76 94 196
249 268 345 72 96 158 201 190 233 171 168 475 344 927 535 699 295 1465 506
2212 611 243 34 1489 161 1773 181 201 13 499 3 855 -30z m-316 -325 c146 -19
216 -35 386 -90 207 -66 281 -79 460 -80 85 0 234 6 331 14 296 24 431 11 894
-83 439 -89 729 -164 880 -228 44 -19 134 -68 200 -110 325 -204 435 -249 731
-303 400 -71 591 -187 650 -394 9 -31 23 -69 31 -86 35 -69 138 -191 328 -386
264 -270 348 -384 399 -538 56 -168 73 -432 36 -575 -33 -129 -81 -203 -272
-422 -86 -97 -170 -221 -243 -354 -103 -190 -168 -255 -326 -329 -46 -22 -142
-56 -214 -76 -312 -88 -363 -111 -489 -225 -49 -44 -122 -101 -162 -126 -243
-152 -750 -304 -1735 -523 -757 -168 -1053 -213 -1574 -236 -181 -9 -377 -20
-435 -26 -205 -19 -358 -22 -433 -9 -40 7 -161 41 -269 76 -312 100 -276 95
-823 104 -538 8 -539 8 -720 88 -180 79 -423 146 -680 188 -224 37 -341 61
-538 111 -427 107 -739 236 -861 355 -47 46 -91 75 -210 135 -83 42 -189 102
-236 133 -341 230 -803 668 -894 849 -34 67 -82 223 -102 332 -25 134 -25 396
0 504 28 125 73 207 173 320 49 55 114 122 144 148 149 133 372 399 449 537
50 89 122 158 217 208 152 79 466 189 747 263 171 45 310 108 601 273 276 157
394 194 895 286 586 107 772 132 1130 150 258 13 426 34 676 84 65 13 160 29
209 35 50 6 101 13 115 15 74 10 430 5 534 -9z m-6755 -3354 c149 -288 224
-391 476 -650 688 -707 1610 -1188 3001 -1565 1307 -354 2979 -473 4419 -316
724 80 1462 246 2180 490 1043 356 1917 858 2441 1403 188 195 304 354 419
574 38 72 77 142 88 155 l18 23 -6 -40 c-13 -78 -68 -231 -119 -336 -479 -963
-2027 -1856 -3961 -2283 -1811 -400 -3845 -336 -5658 178 -1356 385 -2462
1011 -3017 1710 -121 152 -187 261 -258 429 -62 146 -144 379 -157 447 -7 34
-6 34 9 13 9 -12 65 -117 125 -232z m1081 -771 c233 -171 391 -263 791 -465
535 -269 720 -340 1209 -465 285 -72 1275 -307 1415 -336 1030 -210 2382 -247
3450 -93 210 30 375 62 688 133 155 36 392 88 527 116 440 92 658 149 980 259
503 171 840 329 1426 671 140 81 251 144 248 139 -30 -49 -239 -216 -419 -334
-996 -657 -2495 -1092 -4160 -1207 -288 -20 -1137 -17 -1435 5 -420 32 -755
70 -1140 133 -1437 232 -2600 647 -3320 1184 -102 76 -321 268 -359 313 -27
33 5 16 99 -53z"/>
<path d="M17483 13750 c-155 -15 -282 -67 -397 -164 -54 -45 -106 -118 -106
-150 0 -56 95 -155 195 -202 311 -148 875 -109 1034 72 94 107 68 241 -66 335
-122 85 -409 132 -660 109z"/>
<path d="M18844 13506 c-60 -27 -70 -134 -17 -176 39 -31 126 -28 158 5 41 40
30 126 -20 159 -34 22 -86 28 -121 12z"/>
<path d="M19707 13409 c-114 -17 -324 -117 -408 -196 -53 -49 -69 -94 -69
-190 0 -122 80 -217 255 -304 188 -92 420 -130 676 -109 392 32 678 147 735
295 22 59 16 155 -14 217 -52 107 -208 217 -364 257 -41 11 -123 24 -183 30
-125 13 -542 13 -628 0z"/>
<path d="M15367 13394 c-88 -21 -208 -88 -261 -144 -25 -27 -46 -53 -46 -59 0
-14 55 -28 135 -35 96 -9 192 -37 381 -112 204 -81 310 -107 434 -108 121 -1
182 23 206 79 38 91 -60 184 -323 307 -172 81 -376 109 -526 72z"/>
<path d="M16455 13305 c-34 -34 -45 -52 -45 -76 0 -59 77 -129 143 -129 35 0
75 36 82 74 8 42 -27 128 -63 156 -39 31 -67 25 -117 -25z"/>
<path d="M14024 12925 c-124 -34 -287 -131 -383 -229 -93 -95 -59 -88 166 35
232 127 316 185 291 201 -16 9 -12 10 -74 -7z"/>
<path d="M21700 12882 c0 -24 88 -72 131 -72 33 0 17 22 -37 52 -48 27 -94 36
-94 20z"/>
<path d="M16675 12841 c-76 -32 -81 -127 -9 -191 28 -24 44 -30 80 -30 121 0
145 159 31 211 -45 20 -70 22 -102 10z"/>
<path d="M18047 12720 c-399 -31 -657 -128 -784 -295 -58 -76 -76 -138 -71
-239 5 -105 37 -176 115 -257 142 -149 381 -233 743 -259 334 -25 668 19 875
114 149 69 289 186 335 281 21 42 25 65 25 140 0 82 -3 97 -33 156 -47 96
-152 193 -274 253 -160 79 -299 104 -623 111 -110 2 -248 0 -308 -5z"/>
<path d="M14820 12656 c-74 -14 -188 -38 -252 -55 -623 -162 -803 -538 -386
-808 242 -157 726 -264 1009 -224 452 65 740 195 832 377 77 153 47 328 -79
450 -120 118 -304 194 -604 250 -198 37 -350 40 -520 10z"/>
<path d="M21330 12529 c-227 -26 -498 -115 -636 -210 -62 -43 -133 -118 -162
-174 -22 -42 -27 -63 -27 -130 0 -69 4 -89 32 -148 93 -197 331 -327 718 -394
153 -26 500 -23 659 5 245 45 417 122 537 241 60 60 80 87 94 130 42 129 -14
303 -136 415 -76 71 -203 134 -364 180 -291 83 -506 109 -715 85z"/>
<path d="M13083 12376 c-39 -18 -53 -43 -53 -96 0 -84 84 -118 161 -66 44 30
66 77 53 114 -17 48 -104 73 -161 48z"/>
<path d="M16800 11868 c-81 -55 -90 -120 -25 -185 29 -29 39 -33 87 -33 64 0
92 17 108 65 9 29 8 41 -8 77 -22 51 -74 98 -106 98 -13 0 -38 -10 -56 -22z"/>
<path d="M12809 11870 c-90 -15 -159 -66 -159 -117 0 -39 66 -100 154 -143
109 -54 217 -80 356 -87 344 -16 579 130 437 272 -37 37 -112 57 -272 75 -104
11 -448 11 -516 0z"/>
<path d="M19972 11829 c-53 -27 -78 -71 -68 -122 15 -78 90 -122 159 -93 46
19 67 51 67 105 0 38 -5 49 -44 87 -24 24 -50 44 -57 44 -8 0 -34 -10 -57 -21z"/>
<path d="M16033 11405 c-157 -44 -337 -192 -267 -219 9 -3 45 -6 80 -6 84 0
195 -23 314 -65 52 -18 154 -53 225 -78 186 -66 319 -78 395 -37 36 20 70 75
70 116 0 34 -7 45 -63 100 -74 72 -207 142 -332 175 -106 28 -345 36 -422 14z"/>
<path d="M19396 11279 c-259 -34 -624 -191 -740 -319 -71 -79 -93 -264 -46
-384 34 -89 127 -177 255 -243 245 -125 530 -192 820 -193 393 0 734 108 918
291 95 95 122 156 122 274 0 83 -3 96 -34 160 -65 131 -227 267 -394 330 -83
31 -278 71 -416 85 -121 12 -386 11 -485 -1z"/>
<path d="M12513 11235 c-33 -33 -35 -39 -31 -87 5 -43 11 -57 41 -84 65 -59
173 -53 197 12 29 74 0 141 -74 175 -62 28 -93 24 -133 -16z"/>
<path d="M17829 11235 c-41 -27 -49 -42 -49 -92 0 -102 124 -160 196 -92 48
45 41 118 -18 178 -38 39 -79 41 -129 6z"/>
<path d="M13735 11239 c-172 -26 -371 -92 -501 -164 -84 -47 -182 -140 -220
-207 -25 -46 -29 -63 -29 -133 0 -70 4 -87 29 -132 61 -111 199 -214 381 -286
185 -73 304 -91 590 -91 419 0 691 67 871 213 202 163 214 387 31 558 -76 71
-171 122 -312 168 -182 60 -300 77 -555 81 -124 1 -252 -1 -285 -7z"/>
<path d="M22790 11167 c-30 -15 -60 -70 -60 -110 0 -36 23 -81 52 -101 13 -9
43 -16 71 -16 40 0 53 5 78 29 25 26 29 37 29 86 0 69 -12 93 -55 111 -42 17
-82 18 -115 1z"/>
<path d="M21357 10874 c-31 -7 -71 -21 -88 -30 -46 -23 -119 -94 -119 -114 0
-27 57 -72 152 -118 208 -102 430 -172 542 -172 162 1 336 86 336 165 0 46
-106 116 -287 189 -222 89 -394 115 -536 80z"/>
<path d="M16970 10709 c-140 -12 -243 -33 -357 -74 -135 -48 -195 -87 -303
-195 -166 -166 -193 -243 -132 -374 56 -119 192 -241 367 -329 202 -101 344
-123 730 -114 349 8 536 43 733 137 270 129 375 361 265 586 -39 80 -150 180
-255 232 -141 70 -291 110 -483 132 -106 12 -415 11 -565 -1z"/>
<path d="M15160 10415 c-18 -22 -15 -130 4 -160 40 -61 112 -70 162 -20 48 48
19 151 -51 181 -44 18 -99 18 -115 -1z"/>
<path d="M21510 9978 c-90 -38 -474 -232 -548 -277 -56 -35 -60 -54 -9 -45
345 59 642 186 687 293 28 69 -13 78 -130 29z"/>
<path d="M13830 9960 c0 -18 73 -91 134 -135 123 -87 297 -158 479 -196 122
-26 315 -31 394 -11 52 14 103 45 103 62 0 23 -52 40 -150 49 -124 12 -290 52
-530 126 -221 68 -388 115 -412 115 -10 0 -18 -4 -18 -10z"/>
<path d="M19018 9745 c-75 -20 -135 -54 -183 -102 -65 -64 -61 -79 23 -87 100
-11 196 -40 402 -123 212 -86 307 -113 396 -113 95 0 146 27 181 94 60 116
-158 274 -457 330 -99 19 -296 20 -362 1z"/>
<path d="M15665 9741 c-83 -34 -75 -158 15 -218 48 -33 95 -30 131 8 60 64 58
162 -4 199 -33 21 -105 26 -142 11z"/>
<path d="M16412 9480 c-36 -22 -52 -54 -52 -105 0 -107 84 -169 153 -115 58
46 62 163 8 212 -37 33 -64 35 -109 8z"/>
<path d="M18101 9315 c-26 -30 -31 -44 -31 -86 0 -119 78 -164 169 -99 23 17
49 46 58 65 16 33 16 35 -10 74 -29 43 -90 81 -131 81 -15 0 -35 -13 -55 -35z"/>
<path d="M27763 29038 c-6 -7 -27 -44 -47 -83 -72 -138 -603 -769 -1162 -1380
-259 -283 -393 -412 -482 -465 l-72 -42 119 -127 c66 -69 189 -195 274 -279
l154 -153 33 76 c18 42 55 108 82 146 210 299 1095 1331 1354 1579 68 65 109
95 174 127 47 23 94 44 104 48 16 5 -5 30 -125 153 -80 81 -201 207 -271 280
-93 98 -128 129 -135 120z"/>
<path d="M6499 27495 c-329 -66 -721 -399 -854 -727 -67 -166 -98 -412 -76
-605 33 -281 146 -488 416 -759 155 -155 269 -239 400 -293 257 -107 596 -131
870 -60 458 117 885 689 885 1184 0 306 -136 623 -373 872 -272 284 -584 405
-1038 402 -91 0 -193 -7 -230 -14z m454 -644 c258 -68 454 -261 517 -507 36
-140 23 -262 -45 -399 -92 -189 -277 -300 -500 -299 -258 1 -498 140 -654 379
-74 114 -111 209 -111 285 1 132 69 269 193 386 83 78 192 140 297 169 71 19
199 13 303 -14z"/>
<path d="M28450 27476 c-316 -57 -577 -198 -802 -434 -243 -256 -378 -583
-378 -917 0 -244 71 -462 221 -675 121 -172 351 -368 531 -453 196 -92 346
-114 548 -82 156 26 196 57 185 145 -7 63 -61 252 -87 307 -27 58 -60 77 -156
93 -147 23 -267 84 -375 188 -110 107 -184 229 -218 360 -69 270 52 526 344
724 115 78 133 83 307 82 124 -1 171 -6 235 -23 126 -33 238 -93 309 -165 125
-126 170 -245 185 -485 5 -81 14 -158 21 -170 14 -27 33 -25 205 20 191 49
505 160 505 179 0 4 -14 13 -30 20 -79 33 -124 126 -181 379 -54 237 -258 524
-484 680 -236 163 -649 269 -885 227z"/>
<path d="M29859 25280 c-219 -25 -452 -121 -644 -266 -88 -66 -237 -218 -298
-305 -129 -182 -201 -404 -214 -654 -25 -498 253 -968 702 -1185 140 -67 250
-86 552 -96 299 -10 408 10 605 114 232 121 449 345 575 595 52 104 71 195 84
400 14 224 7 415 -19 517 -44 168 -154 352 -297 496 -140 141 -310 248 -503
318 -156 56 -385 84 -543 66z m343 -682 c189 -71 326 -202 386 -372 22 -61 26
-88 26 -191 0 -82 -6 -140 -18 -185 -59 -217 -208 -360 -426 -406 -100 -21
-304 -14 -412 15 -199 52 -341 176 -398 349 -25 77 -36 227 -22 302 43 227
217 415 452 489 92 29 102 30 230 27 94 -3 127 -8 182 -28z"/>
<path d="M4845 24940 c-77 -4 -150 -8 -163 -9 -60 -3 -236 -218 -475 -581
-327 -497 -497 -806 -497 -905 0 -32 0 -32 173 -105 350 -147 456 -194 632
-282 436 -218 719 -387 1175 -702 l124 -87 17 33 c9 18 20 48 24 66 10 46 105
186 229 337 233 283 352 516 408 799 25 127 27 335 4 451 -62 312 -252 589
-536 780 -100 66 -263 150 -330 169 -118 33 -512 51 -785 36z m453 -636 c251
-52 453 -202 554 -412 58 -122 50 -267 -29 -501 -19 -58 -47 -128 -62 -156
-24 -46 -29 -50 -61 -48 -22 1 -191 80 -485 227 -459 230 -685 351 -685 369 0
28 222 373 292 451 48 55 79 73 150 86 68 12 229 4 326 -16z"/>
<path d="M3801 18041 c-22 -22 -28 -57 -35 -206 -6 -113 -20 -175 -41 -175
-20 0 -102 84 -168 171 -127 169 -235 230 -270 150 -14 -33 -12 -459 3 -610
13 -122 32 -171 74 -184 23 -8 32 -6 49 11 18 19 21 38 28 204 8 195 14 228
35 228 13 0 94 -101 203 -252 73 -103 158 -198 176 -198 7 0 16 11 19 25 23
92 33 537 16 713 -12 129 -42 170 -89 123z"/>
<path d="M2445 18031 c-83 -22 -155 -81 -194 -158 -39 -78 -23 -140 58 -226
56 -59 96 -83 154 -92 47 -7 127 -80 127 -115 0 -28 -79 -110 -106 -110 -11 0
-48 23 -83 50 -78 61 -105 63 -155 16 -40 -37 -43 -53 -21 -96 42 -81 230
-124 366 -84 71 21 142 90 159 154 33 122 -36 238 -192 324 -87 47 -138 95
-138 129 0 42 29 50 144 43 113 -7 149 3 154 43 5 30 -39 77 -94 102 -47 21
-136 31 -179 20z"/>
<path d="M2971 18021 c-29 -29 -33 -78 -29 -441 3 -372 5 -384 60 -378 42 4
67 41 78 114 5 32 13 197 16 365 l7 307 -26 26 c-31 31 -79 34 -106 7z"/>
<path d="M4338 18030 c-121 -22 -248 -113 -298 -213 -61 -125 -62 -253 -1
-382 69 -149 205 -235 371 -235 164 0 314 79 359 189 19 45 8 60 -61 85 -61
22 -69 20 -137 -29 -104 -76 -272 -48 -330 55 -31 56 -40 154 -17 198 24 46
83 101 130 123 65 29 124 25 200 -16 37 -19 70 -35 75 -35 11 0 71 141 78 184
5 32 4 32 -29 28 -22 -2 -56 6 -96 22 -68 29 -170 40 -244 26z"/>
<path d="M4895 17833 c4 -115 10 -300 14 -413 l6 -205 160 -8 c88 -4 200 -6
248 -5 101 3 117 14 117 78 0 63 -21 73 -169 80 -151 6 -166 13 -158 74 8 55
36 89 88 104 72 22 87 30 105 57 17 26 16 27 -8 52 -20 20 -40 27 -93 32 -82
9 -95 22 -95 102 0 79 15 89 135 89 106 1 165 12 182 36 17 23 17 75 0 98 -19
25 -115 36 -340 36 l-198 0 6 -207z"/>
<path d="M30481 17979 c-72 -36 -115 -86 -115 -134 0 -32 27 -85 43 -85 5 0
33 18 62 40 30 23 64 43 77 46 63 17 97 -28 96 -126 0 -73 -29 -126 -100 -187
-100 -86 -188 -256 -164 -317 12 -34 62 -41 285 -41 156 0 185 2 208 18 22 14
27 25 27 56 0 60 -22 73 -144 82 -105 7 -146 19 -146 42 0 7 26 39 58 72 69
72 163 251 170 324 3 41 -1 53 -36 106 -59 88 -80 104 -158 121 -91 19 -91 19
-163 -17z"/>
<path d="M31309 17994 c-107 -32 -193 -122 -225 -232 -34 -115 0 -336 69 -457
29 -52 98 -98 181 -120 62 -17 68 -17 110 -1 64 24 199 145 226 202 21 43 22
55 17 168 -8 144 -26 228 -69 308 -68 128 -176 174 -309 132z m141 -186 c51
-35 63 -81 64 -238 1 -176 -16 -210 -118 -234 -25 -6 -34 -1 -76 42 -59 61
-84 130 -83 227 1 170 110 273 213 203z"/>
<path d="M32013 17981 c-65 -36 -130 -87 -143 -112 -9 -15 -5 -23 16 -41 14
-13 31 -34 37 -48 6 -15 13 -135 16 -296 6 -249 8 -274 25 -293 24 -26 76 -28
105 -3 36 29 44 123 38 452 -6 288 -12 360 -32 367 -6 1 -34 -10 -62 -26z"/>
<path d="M32643 17988 c-12 -13 -44 -62 -72 -111 -29 -48 -77 -115 -107 -149
-89 -100 -174 -260 -174 -328 0 -20 8 -34 23 -44 25 -17 130 -36 197 -36 51 0
90 -22 90 -49 0 -36 22 -79 46 -90 68 -31 134 10 134 84 0 30 41 79 79 95 31
13 48 41 35 61 -3 6 -32 22 -62 36 -89 39 -88 35 -101 318 -8 185 -19 235 -51
235 -9 0 -26 -10 -37 -22z m-43 -398 c0 -57 -4 -74 -20 -90 -22 -22 -42 -25
-71 -10 -21 12 -25 40 -8 73 14 26 80 97 91 97 4 0 8 -31 8 -70z"/>
<path d="M28715 10375 c-53 -77 -57 -129 -16 -218 36 -80 127 -236 299 -512
291 -466 457 -695 504 -695 10 0 28 15 42 33 35 45 105 196 113 240 5 32 1 39
-27 66 -46 42 -43 78 24 253 95 251 98 258 115 258 9 0 57 -7 106 -15 134 -22
152 -20 189 18 43 43 98 177 99 241 1 39 -4 52 -22 67 -13 11 -33 21 -45 23
-142 24 -334 67 -773 172 -287 68 -533 124 -547 124 -17 0 -33 -14 -61 -55z
m610 -448 c69 -25 91 -37 93 -52 2 -21 -59 -147 -74 -152 -15 -5 -144 177
-144 201 0 45 6 45 125 3z"/>
<path d="M6478 10261 c-206 -123 -704 -443 -837 -538 l-63 -46 6 -41 c13 -79
102 -243 147 -266 28 -15 101 13 217 83 160 97 167 100 183 80 23 -27 13 -180
-25 -403 -37 -213 -44 -316 -25 -353 7 -12 26 -38 44 -58 18 -20 40 -58 50
-85 27 -73 32 -77 90 -60 28 8 69 17 93 21 72 11 74 19 83 308 4 139 10 260
14 270 10 23 62 22 178 -4 125 -28 212 -22 307 22 163 75 265 259 246 441 -22
216 -354 758 -463 758 -20 0 -99 -41 -245 -129z m274 -450 c86 -132 99 -171
72 -208 -69 -92 -202 -97 -299 -12 -43 38 -78 119 -66 151 18 45 193 194 213
182 6 -4 42 -54 80 -113z"/>
<path d="M28069 9486 c-58 -61 -119 -128 -134 -150 l-29 -39 109 -106 c61 -58
256 -241 435 -406 179 -165 367 -340 418 -389 91 -88 93 -89 111 -70 83 88
252 287 249 294 -2 5 -145 138 -318 295 -369 336 -593 547 -668 628 -30 31
-57 56 -61 56 -3 -1 -54 -51 -112 -113z"/>
<path d="M7500 9030 c-77 -60 -258 -205 -403 -323 -295 -240 -509 -412 -549
-442 l-27 -20 135 -158 c122 -142 138 -157 153 -144 198 170 958 783 1043 842
32 22 58 44 58 48 0 25 -234 307 -255 307 -8 0 -77 -49 -155 -110z"/>
<path d="M27472 8579 c-97 -19 -151 -62 -505 -404 l-198 -191 78 -56 c110 -79
211 -167 598 -523 187 -171 359 -329 382 -349 l42 -37 94 110 c109 127 132
167 118 204 -15 40 -91 106 -157 137 -67 33 -89 53 -99 91 -8 34 12 54 64 63
40 6 103 33 191 80 61 33 122 40 227 25 83 -11 90 -11 130 9 23 12 69 54 103
92 115 134 139 189 100 225 -21 19 -36 20 -315 18 l-292 -3 -6 138 c-3 75 -10
153 -16 172 -39 129 -337 239 -539 199z m176 -355 c39 -27 55 -71 48 -136 -12
-116 -73 -248 -115 -248 -25 0 -185 116 -304 220 -5 4 35 35 87 69 165 106
234 130 284 95z"/>
<path d="M8063 8339 c-140 -44 -253 -215 -253 -381 0 -75 153 -435 259 -609
31 -50 27 -67 -15 -75 -64 -12 -185 1 -231 24 -44 23 -84 67 -104 117 -6 17
-13 86 -15 155 -4 138 -12 167 -55 199 -57 42 -172 91 -215 91 -78 0 -99 -55
-99 -265 0 -171 11 -221 72 -323 45 -77 152 -187 234 -243 133 -90 289 -139
445 -139 135 0 177 16 256 97 90 93 120 156 126 258 7 131 -36 238 -193 479
-145 222 -148 246 -33 246 79 0 128 -19 179 -70 51 -51 69 -102 69 -192 0
-107 40 -141 271 -233 100 -40 122 -46 131 -34 15 22 1 272 -22 384 -24 119
-51 178 -123 266 -97 117 -260 219 -408 254 -88 20 -200 18 -276 -6z"/>
<path d="M26317 7686 c-179 -140 -356 -287 -440 -365 l-62 -59 21 -43 c91
-187 775 -1006 863 -1034 15 -4 37 3 72 25 167 102 674 498 703 548 7 12 -3
27 -45 66 -75 68 -229 196 -238 196 -4 0 -79 -66 -167 -147 -245 -226 -263
-234 -329 -166 -57 59 -53 68 95 197 114 100 140 135 140 184 0 52 -119 202
-161 202 -38 0 -86 -28 -232 -139 -82 -61 -155 -111 -162 -111 -20 0 -53 38
-65 76 -20 59 12 95 223 259 116 89 197 164 197 181 0 32 -217 244 -249 244
-9 0 -83 -51 -164 -114z"/>
<path d="M9209 7517 c-25 -23 -80 -78 -122 -122 l-76 -81 117 -84 c168 -120
262 -199 262 -218 0 -39 -398 -521 -588 -712 l-124 -125 48 -43 c76 -68 206
-168 242 -186 24 -12 37 -14 52 -6 31 17 191 200 400 460 259 321 299 365 327
356 12 -4 91 -54 176 -110 l154 -104 62 83 c63 86 91 139 91 176 0 26 -58 83
-126 124 -59 36 -265 189 -481 358 -181 141 -361 277 -365 277 -2 -1 -24 -20
-49 -43z"/>
<path d="M25385 6997 c-416 -251 -617 -393 -650 -457 -28 -53 -9 -164 35 -213
24 -27 35 -32 70 -31 52 2 162 57 348 173 73 46 136 81 139 77 4 -4 2 -174 -4
-379 -12 -367 -7 -506 18 -599 9 -34 95 -243 105 -257 3 -4 698 437 849 540
55 37 111 79 124 93 22 23 23 28 11 51 -14 26 -187 228 -200 233 -4 2 -121
-72 -260 -163 -139 -91 -253 -165 -255 -163 -1 2 -8 147 -14 323 -26 726 -49
875 -133 875 -7 0 -89 -46 -183 -103z"/>
<path d="M10441 6520 c-40 -10 -120 -41 -177 -69 -86 -43 -120 -67 -198 -142
-192 -183 -265 -361 -253 -618 14 -316 203 -583 495 -699 66 -26 71 -27 302
-27 232 0 236 0 298 26 109 46 174 91 267 184 60 60 105 117 136 170 80 139
82 147 87 360 5 229 -3 281 -63 401 -128 261 -418 435 -719 433 -61 0 -130 -8
-175 -19z m284 -405 c244 -64 359 -314 252 -549 -66 -144 -230 -215 -433 -188
-149 20 -248 83 -301 190 -25 51 -28 67 -28 162 0 96 3 110 29 165 52 105 154
186 277 219 71 19 132 19 204 1z"/>
<path d="M24245 6302 c-93 -49 -262 -141 -375 -204 -113 -63 -233 -129 -267
-147 -72 -36 -73 -38 -42 -137 27 -87 65 -163 86 -171 22 -9 61 7 277 108 103
49 192 89 197 89 11 0 11 -275 0 -595 -10 -270 0 -537 20 -561 18 -22 75 -14
164 21 94 37 555 268 680 340 127 73 142 85 149 112 13 46 -46 266 -80 305
-16 17 -23 14 -163 -59 -263 -137 -413 -213 -423 -213 -6 0 -7 32 -4 83 4 45
16 208 27 362 15 192 20 338 17 465 -3 173 -5 189 -28 235 -16 32 -32 51 -45
52 -11 2 -96 -37 -190 -85z"/>
<path d="M11888 5803 c-22 -6 -106 -136 -251 -389 -172 -300 -417 -758 -417
-781 0 -42 158 -170 241 -195 62 -18 81 2 230 245 30 48 59 87 66 87 18 0 59
-58 89 -125 14 -33 57 -151 95 -263 98 -288 98 -288 204 -337 39 -17 84 -46
100 -63 37 -40 54 -40 91 -1 16 17 49 45 73 61 42 29 43 32 38 72 -3 23 -46
120 -102 229 -53 104 -103 208 -111 230 -14 39 -14 43 5 58 11 9 64 28 118 43
124 35 200 75 259 138 156 167 146 441 -23 605 -191 187 -604 413 -705 386z
m281 -490 c160 -88 191 -121 172 -182 -25 -86 -96 -133 -196 -133 -102 0 -185
55 -185 124 0 34 40 150 76 219 17 33 25 32 133 -28z"/>
<path d="M23042 5715 c-117 -40 -142 -51 -142 -66 0 -36 403 -998 498 -1189
44 -89 49 -95 80 -98 40 -4 135 27 248 79 l83 39 -23 53 c-13 28 -90 196 -171
372 -81 176 -174 379 -206 452 -69 155 -154 327 -181 366 -26 36 -58 35 -186
-8z"/>
<path d="M22189 5370 c-169 -29 -486 -153 -563 -221 -38 -32 -38 -34 -33 -89
6 -70 120 -412 280 -840 68 -184 132 -351 140 -372 l15 -36 104 32 c118 38
155 55 184 88 43 48 38 90 -33 270 -25 64 -43 123 -40 130 2 8 78 52 167 98
248 127 312 198 347 382 20 107 14 249 -12 303 -29 60 -160 187 -225 217 -97
45 -211 58 -331 38z m152 -355 c45 -32 89 -92 89 -123 0 -30 -58 -92 -139
-147 -83 -56 -135 -67 -178 -37 -62 44 -103 185 -69 236 19 29 89 73 149 92
55 18 101 11 148 -21z"/>
<path d="M13551 5125 c-47 -21 -167 -140 -280 -280 -217 -268 -678 -872 -670
-879 2 -2 64 -27 138 -55 216 -84 260 -80 307 25 32 74 50 79 181 60 135 -20
203 -41 260 -79 54 -36 84 -83 113 -178 32 -107 89 -143 266 -171 39 -6 79 -8
88 -5 21 8 21 48 -4 183 -25 135 -63 425 -90 689 -46 445 -73 593 -118 647
-47 55 -122 72 -191 43z m-15 -591 c24 -35 32 -221 12 -247 -13 -17 -17 -18
-81 -3 -98 23 -137 41 -137 65 0 10 23 53 51 95 77 116 122 142 155 90z"/>
<path d="M14558 4826 c-18 -17 -63 -197 -158 -626 -34 -151 -84 -369 -112
-483 -57 -239 -58 -230 36 -266 72 -27 248 -63 257 -54 22 22 95 385 108 539
5 59 14 111 20 117 19 19 59 -10 111 -80 27 -37 117 -181 199 -318 219 -367
279 -435 385 -435 94 0 110 38 195 470 92 468 151 816 151 883 0 40 -16 49
-131 78 -138 35 -144 35 -174 5 -30 -30 -37 -59 -80 -309 -41 -238 -73 -362
-94 -362 -29 0 -119 151 -320 535 -62 118 -124 227 -138 242 -54 57 -220 99
-255 64z"/>
<path d="M16026 4578 c-10 -65 -26 -227 -26 -267 0 -29 5 -41 18 -45 9 -3 95
-17 190 -30 95 -14 181 -30 192 -36 50 -27 47 -109 -31 -732 -45 -363 -44
-354 -24 -362 26 -10 365 -59 370 -54 3 3 14 156 25 339 20 334 45 643 58 709
6 28 16 39 47 55 34 17 66 20 218 23 l178 4 -5 27 c-3 14 -8 71 -11 126 -3 55
-9 114 -11 131 l-6 31 -191 12 c-174 11 -562 44 -662 56 -89 11 -272 36 -297
41 -24 5 -27 2 -32 -28z"/>
<path d="M17510 4483 c0 -70 50 -1097 60 -1243 15 -205 12 -198 68 -206 84
-13 752 14 875 34 41 7 42 8 45 51 2 24 -7 107 -19 184 l-22 139 -131 -7
c-161 -9 -460 -23 -463 -21 -5 4 -20 170 -16 186 3 10 12 22 21 26 10 4 111
10 226 12 l209 4 -7 81 c-3 45 -9 115 -13 155 l-6 72 -116 0 c-64 1 -161 5
-215 9 -114 9 -136 24 -136 91 0 94 128 130 458 130 l152 0 0 170 0 170 -485
0 -485 0 0 -37z"/>
<path d="M20101 4265 c-208 -39 -242 -49 -265 -74 -17 -18 -17 -24 -2 -90 9
-38 16 -81 16 -95 0 -42 31 -51 175 -50 136 1 254 16 317 41 31 12 39 21 44
51 8 42 -9 167 -30 217 -19 44 -22 44 -255 0z"/>
</g>
</svg>
